<svg id="Layer_1" enable-background="new 0 0 512 512" height="512" viewBox="0 0 512 512" width="512" xmlns="http://www.w3.org/2000/svg"><g><path d="m120 32h16v16h-16z"/><path d="m424 32h16v16h-16z"/><path d="m0 189.7h16v16h-16z"/><path d="m232 464h16v16h-16z"/><path d="m180 408c-15.4 0-28 12.6-28 28s12.6 28 28 28 28-12.6 28-28-12.6-28-28-28zm0 40c-6.6 0-12-5.4-12-12s5.4-12 12-12 12 5.4 12 12-5.4 12-12 12z"/><path d="m52 72c15.4 0 28-12.6 28-28s-12.6-28-28-28-28 12.6-28 28 12.6 28 28 28z"/><path d="m220.2 55 23.8 13 13 23.8c1.4 2.6 4.1 4.2 7 4.2s5.6-1.6 7-4.2l13-23.8 23.8-13c2.6-1.4 4.2-4.1 4.2-7s-1.6-5.6-4.2-7l-23.8-13-13-23.8c-1.4-2.6-4.1-4.2-7-4.2s-5.6 1.6-7 4.2l-13 23.8-23.8 13c-2.6 1.4-4.2 4.1-4.2 7s1.6 5.6 4.2 7z"/><path d="m387.8 457-23.8-13-13-23.8c-1.4-2.6-4.1-4.2-7-4.2s-5.6 1.6-7 4.2l-13 23.8-23.8 13c-2.6 1.4-4.2 4.1-4.2 7s1.6 5.6 4.2 7l23.8 13 13 23.8c1.4 2.6 4.1 4.2 7 4.2s5.6-1.6 7-4.2l13-23.8 23.8-13c2.6-1.4 4.2-4.1 4.2-7s-1.6-5.6-4.2-7z"/><path d="m511.1 292.4-55.1-110.3v-86.1c0-2.6-1.2-5-3.3-6.5s-4.8-1.9-7.2-1.1l-13.5 4.5v-12.9c0-4-2.9-7.3-6.8-7.9-22.1-3.3-44.5-3.3-66.4 0-33.8 5.1-66.6 18.4-95.3 38.4-24.4-13.6-50.5-23.8-77.7-30.3-33.7-8.1-78.9-8.9-98.1-8.2-4.3.2-7.7 3.7-7.7 8v12.9l-13.5-4.5c-2.4-.8-5.1-.4-7.2 1.1-2.1 1.5-3.3 3.9-3.3 6.5v86.1l-55.6 110.3c-.6 1.1-.9 2.3-.9 3.6v216h16v-212.2l94.8-78.2c2.2 10.4 2.7 27.6-10 45l-42.3 39.6c-1.6 1.5-2.5 3.6-2.5 5.8v24c0 4.4 3.6 8 8 8 .1 0 10.5.3 18.2 9.7 9.5 11.6 11.6 32.6 6 60.7l15.7 3.1c2.5-12.7 3.7-24.2 3.4-34.4 4.7-.3 9.3-.4 13.9-.4.3 17.5-2.4 62.6-35.6 73.7-3.3 1.1-5.5 4.1-5.5 7.6v48h16v-42.5c19.5-8.7 32.6-27.4 38.2-54.4 2.6-12.4 3-23.9 2.9-31.6 41.7 3.4 75.6 18.4 94.3 28.6.7.4 1.1 1 1.1 1.8v10.1c0 4.4 3.6 8 8 8h48c4.4 0 8-3.6 8-8v-11.3c0-.6.3-1.2.7-1.6 26.5-21.1 55.9-27.9 78.3-29.5-.4 20.7 2.8 70.9 40.9 87.9v42.5h16v-48c0-3.4-2.2-6.5-5.5-7.6-33.3-11.1-35.8-57.4-35.4-75.2 5.6.2 10.2.6 13.7 1-.4 10.4.7 22.2 3.3 35.3l15.7-3.1c-5.6-27.9-3.6-48.8 5.8-60.5 7.7-9.6 18-9.9 18.4-10 4.4 0 8-3.6 8-8v-24c0-2.2-.9-4.3-2.5-5.8l-42.2-39.5c-12.8-17.4-12.2-34.6-10-45l94.8 78.2v212.2h16v-216c-.1-1.3-.4-2.5-1-3.6zm-455.1-46.7-24.2 20 24.2-48zm24-19.8-8 6.6v-125.4l8 2.7zm0 106.4c-3.1-1.5-6-2.5-8.5-3.2v-13.7l8.5-7.9zm352-24.3 8 7.5v13.7c-2.4.6-5.1 1.5-8 2.9zm-196-146.9-7.9 13.9c-53-30.3-106.4-23.1-106.9-23l-2.3-15.8c2.4-.5 59.3-8.1 117.1 24.9zm0 40-7.9 13.9c-53-30.3-106.4-23.1-106.9-23l-2.3-15.8c2.4-.5 59.3-8.1 117.1 24.9zm176.6 149.5c-2.6 4.6-4.5 9.9-5.8 15.7-20.2-2.6-73.4-4.9-120 32.3-4.3 3.4-6.8 8.6-6.8 14.1v3.3h-32v-2.2c0-6.6-3.6-12.7-9.4-15.8-24.7-13.4-74-34.6-133.7-30.7-1.2-5.7-3-10.8-5.4-15.4 21.5 0 56 1.6 82.6 8 27.3 6.5 53.5 17 77.9 31.1 1.2.7 2.6 1.1 4 1.1s2.8-.4 4-1.1c.3-.1.5-.3.7-.5 27.6-20.2 59.5-33.5 92.5-38.5 17-2.7 34.2-3.1 51.4-1.4zm-11.5-54.5-2.3 15.8c-.5-.1-54.1-7.1-106.9 23l-7.9-13.9c57.7-32.9 114.7-25.3 117.1-24.9zm-25.1-112.1v-16h16v16zm22.9-39.2c-.5-.1-54.1-7.1-106.9 23l-7.9-13.9c57.7-33 114.7-25.3 117.1-25zm41.1 88.1-8-6.6v-116.5l8-2.7zm16 13.2v-28.2l24 47.9z"/></g></svg>