<svg id="Capa_1" enable-background="new 0 0 512 512" height="512" viewBox="0 0 512 512" width="512" xmlns="http://www.w3.org/2000/svg"><g><path d="m45.787 279.213h30v30h-30z"/><path d="m435.787 279.213h30v30h-30z"/><path d="m465.787 482v-82.787h-30v82.787h-121.713v-35.893l52.671-30.686c16.073-9.363 26.058-26.735 26.058-45.336v-132.797c0-10.33-8.479-18.734-18.9-18.734h-.847c-9.772 0-17.723 7.951-17.723 17.724v75.674h-15c-20.068 0-36.395 16.327-36.395 36.396v47.559h-30v-47.559c0-31.453 21.985-57.869 51.395-64.687v-47.383c0-21.449 14.225-39.634 33.735-45.628l.005-138.182c0-10.329-8.404-18.733-18.734-18.733s-18.734 8.404-18.734 18.734v117.541h-30v-151.276c-.001-10.33-8.405-18.734-18.735-18.734s-18.734 8.404-18.734 18.734v151.276h-30v-117.541c0-10.33-8.404-18.734-18.734-18.734s-18.734 8.404-18.734 18.734v151.276h-30v-83.805c0-5.006-1.946-9.706-5.481-13.233-3.66-3.666-8.49-5.621-13.688-5.496-10.092.225-18.301 8.93-18.301 19.405v211.623c0 7.627 1.708 15.311 4.938 22.221l.283.645 39.778 96.658v30.237h-88.41v-142.787h-30v142.787h-45.787v30h314.074 197.926v-30zm-241.651 0v-53.135h30v53.135z"/><path d="m465.787 339.213h30v30h-30z"/></g></svg>