<svg id="Capa_1" enable-background="new 0 0 512 512" height="512" viewBox="0 0 512 512" width="512" xmlns="http://www.w3.org/2000/svg"><g><path d="m272.872 190.196v30h-50.828c4.728 21.35 19.378 39.571 39.964 48.562l8.996 3.929v35.984h37.47v-35.988l9-3.928c20.586-8.983 35.235-27.204 39.961-48.56h-50.829v-30h50.816c-6.876-31.042-34.603-54.336-67.684-54.336s-60.808 23.294-67.683 54.336h50.817z"/><path d="m141.825 444.531h295.829v-444.531h-295.829zm259.933-37.943h-33.734v-30h33.734zm-33.735-368.468h33.734v30h-33.734zm-78.284 67.74c54.774 0 99.337 44.562 99.337 99.336 0 36.135-19.565 69.115-50.602 86.575v46.9h-97.47v-46.903c-31.038-17.469-50.602-50.448-50.602-86.573.001-54.773 44.563-99.335 99.337-99.335zm-111.754-67.74h33.735v30h-33.735zm0 338.468h33.735v30h-33.735z"/><path d="m93.08 0c-10.33 0-18.734 8.404-18.734 18.734v429.542c5.77-2.412 12.1-3.745 18.734-3.745h18.745v-444.531z"/><path d="m93.08 474.531c-10.33 0-18.734 8.404-18.734 18.734s8.404 18.735 18.734 18.735h344.574v-37.469h-325.829z"/></g></svg>