<svg height="512pt" viewBox="-46 0 512 512" width="512pt" xmlns="http://www.w3.org/2000/svg"><path d="m420.800781 144v176c0 105.921875-86.082031 192-192 192h-228.800781l44-29.28125c1.28125-.957031 2.558594-1.757812 3.839844-2.71875 53.28125-37.28125 84.960937-98.078125 84.960937-163.359375v-172.640625c0-79.359375 64.640625-144 144-144s144 64.640625 144 144zm0 0" fill="#e4edfb"/><g fill="#57565c"><path d="m212.800781 96h32v48h-32zm0 0"/><path d="m308.800781 96h32v48h-32zm0 0"/><path d="m324.800781 272h-96v-48c0-26.464844 21.535157-48 48-48 26.464844 0 48 21.535156 48 48zm0 0"/></g><path d="m420.800781 288v32c0 105.921875-86.082031 192-192 192h-228.800781l44-29.28125c1.28125-.957031 2.558594-1.757812 3.839844-2.71875h180.960937c105.917969 0 192-86.078125 192-192zm0 0" fill="#d7e1f2"/><path d="m276.800781 176c-26.464843 0-48 21.535156-48 48v32c0-26.464844 21.535157-48 48-48 26.464844 0 48 21.535156 48 48v-32c0-26.464844-21.535156-48-48-48zm0 0" fill="#2d2d30"/></svg>