<svg xmlns="http://www.w3.org/2000/svg" height="512pt" version="1.1" viewBox="0 0 512 512" width="512pt">
<g id="surface1">
<path d="M 129.007812 182.164062 C 129.007812 112.144531 185.976562 55.175781 256 55.175781 C 326.023438 55.175781 382.992188 112.144531 382.992188 182.164062 L 382.992188 355.652344 L 438.6875 355.652344 L 438.6875 182.6875 C 438.6875 81.953125 356.734375 0 256 0 C 155.265625 0 73.3125 81.953125 73.3125 182.6875 L 73.3125 355.652344 L 129.007812 355.652344 Z M 129.007812 182.164062 " style=" stroke:none;fill-rule:nonzero;fill:rgb(0%,0%,0%);fill-opacity:1;" />
<path d="M 256 85.175781 C 202.519531 85.175781 159.007812 128.683594 159.007812 182.164062 L 159.007812 355.652344 L 352.992188 355.652344 L 352.992188 182.164062 C 352.992188 128.683594 309.480469 85.175781 256 85.175781 Z M 320.667969 213 L 271 213 L 271 319.332031 L 241 319.332031 L 241 213 L 191.332031 213 L 191.332031 183 L 241 183 L 241 131.332031 L 271 131.332031 L 271 183 L 320.667969 183 Z M 320.667969 213 " style=" stroke:none;fill-rule:nonzero;fill:rgb(0%,0%,0%);fill-opacity:1;" />
<path d="M 462 430 L 462 385.652344 L 50 385.652344 L 50 430 L 0 430 L 0 512 L 512 512 L 512 430 Z M 462 430 " style=" stroke:none;fill-rule:nonzero;fill:rgb(0%,0%,0%);fill-opacity:1;" />
</g>
</svg>