<svg height="512pt" viewBox="-36 0 512 512.001" width="512pt" xmlns="http://www.w3.org/2000/svg"><path d="m437.648438 135.625-63.039063-127.28125c-2.53125-5.109375-7.738281-8.34375-13.441406-8.34375h-176c-.085938 0-.171875.0078125-.261719.0078125-.144531.0039063-.292969.0078125-.441406.015625-.394532.0195313-.785156.0507813-1.175782.1015625-.042968.003906-.082031.003906-.125.011719l-.097656.011719c-.003906 0-.011718 0-.019531.003906l-115.285156 15.535156c-5.519531.742188-10.171875 4.484375-12.085938 9.71875l-54.765625 149.863281c-1.222656 3.351563-1.210937 7.035157.035156 10.382813l117.914063 316.582031c2.183594 5.871094 7.789063 9.765625 14.054687 9.765625h228.253907c7.273437 0 13.496093-5.214844 14.769531-12.375l63.035156-354.71875c.5625-3.15625.097656-6.410156-1.324218-9.28125zm-280.203126-3.824219c0 5.289063-4.300781 9.59375-9.589843 9.59375h-25.675781c-5.289063 0-9.59375-4.304687-9.59375-9.59375 0-5.289062 4.304687-9.59375 9.59375-9.59375h25.675781c5.289062 0 9.589843 4.304688 9.589843 9.59375zm-35.265624 39.59375h25.675781c5.289062 0 9.589843 4.304688 9.589843 9.59375 0 5.289063-4.300781 9.589844-9.589843 9.589844h-25.675781c-5.289063 0-9.59375-4.300781-9.59375-9.589844 0-5.289062 4.304687-9.59375 9.59375-9.59375zm0 49.183594h25.675781c5.289062 0 9.589843 4.304687 9.589843 9.59375s-4.300781 9.59375-9.589843 9.59375h-25.675781c-5.289063 0-9.59375-4.304687-9.59375-9.59375s4.304687-9.59375 9.59375-9.59375zm75.351562-68.464844 33.726562-68.101562h83.820313l33.726563 68.101562-49.023438 275.875h-53.226562zm.207031 329.886719-38.039062-214.046875c10.742187-3.375 19.515625-11.214844 24.15625-21.332031l35.363281 198.992187c1.269531 7.160157 7.496094 12.375 14.769531 12.375h78.359375c7.273438 0 13.496094-5.214843 14.769532-12.375l52.089843-293.109375c.5625-3.15625.097657-6.410156-1.328125-9.28125l-40.046875-80.867187c-2.53125-5.109375-7.742187-8.34375-13.445312-8.34375h-102.4375c-5.703125 0-10.910157 3.230469-13.441407 8.34375l-25.445312 51.371093c-4.386719-8.515624-11.769531-15.238281-20.75-18.773437l32.167969-64.953125h157.378906l56.714844 114.515625-59.976563 337.484375zm-166.75-301.632812 49.757813-136.15625 78.453125-10.574219-29.007813 58.570312h-8.011718c-21.832032 0-39.59375 17.761719-39.59375 39.59375 0 9.289063 3.222656 17.832031 8.597656 24.59375-5.375 6.757813-8.597656 15.304688-8.597656 24.59375 0 9.285157 3.222656 17.832031 8.597656 24.589844-5.375 6.761719-8.597656 15.308594-8.597656 24.59375 0 21.832031 17.761718 39.59375 39.59375 39.59375h7.371093l37.714844 212.234375h-23.929687zm0 0"/><path d="m258.167969 261.386719c0 8.285156 6.714843 15 15 15 8.285156 0 15-6.714844 15-15v-73.65625h21.117187c8.285156 0 15-6.714844 15-15 0-8.28125-6.714844-15-15-15h-21.117187v-24.996094c0-8.285156-6.714844-15-15-15-8.285157 0-15 6.714844-15 15v24.996094h-21.121094c-8.28125 0-15 6.71875-15 15 0 8.285156 6.71875 15 15 15h21.121094zm0 0"/></svg>