<svg height="480pt" viewBox="0 0 480 480.48007" width="480pt" xmlns="http://www.w3.org/2000/svg"><path d="m378.246094 432.304688 18.402344-82.703126 49.9375 10.703126 3.34375-15.648438-49.816407-10.671875 7.949219-35.769531-15.613281-3.472656-8 35.890624-46.546875-9.976562-3.34375 15.648438 46.402344 9.945312-18.703126 84.277344c-26.402343-2.671875-52.898437-4.167969-74.464843-5l.398437 5.144531c.496094 6.742187-1.871094 13.382813-6.527344 18.289063-4.503906 4.824218-10.820312 7.550781-17.425781 7.519531h-111.4375c-6.894531.035156-13.464843-2.910157-18.019531-8.085938-4.558594-5.171875-6.652344-12.066406-5.742188-18.898437-62.824218 5.632812-128.800781 17.582031-128.800781 42.984375 0 4.417969 3.582031 8 8 8h464c4.421875 0 8-3.582031 8-8 0-21.792969-48.542969-33.679688-101.992187-40.175781zm0 0"/><path d="m129.601562 308.878906c1.097657 1.671875 2.78125 2.871094 4.71875 3.359375l25.679688 6.320313-15.121094 113.042968c-.296875 2.257813.402344 4.539063 1.921875 6.238282 1.535157 1.691406 3.714844 2.652344 6 2.640625h111.4375c2.226563.023437 4.351563-.910157 5.839844-2.558594 1.535156-1.609375 2.320313-3.785156 2.160156-6l-7.597656-97.761719c15.640625-6.511718 27.3125-19.988281 31.519531-36.398437l7.199219-43.523438 75.839844-30.316406c1.507812-.621094 2.789062-1.679687 3.679687-3.042969l32-48c.125-.117187.234375-.25.320313-.398437 3.4375-7.40625 2.613281-16.09375-2.160157-22.71875-.160156-.242188-.320312-.5625-.480468-.800781-3.992188-6.179688-10.804688-9.957032-18.160156-10.082032-6.640626-.015625-12.855469 3.285156-16.558594 8.800782l-22.320313 29.839843-56.320312 15.28125 58.722656-58.640625c.859375-.886718 1.511719-1.953125 1.917969-3.121094l16.160156-48.480468c.523438-1.902344.792969-3.863282.800781-5.839844-.085937-6.007812-2.5625-11.738281-6.878906-15.917969-5.699219-5.628906-13.957031-7.816406-21.691406-5.742187-7.738281 2.074218-13.792969 8.097656-15.910157 15.820312l-11.121093 37.121094-49.839844 44.878906 24.160156-53.117187c.359375-.789063.601563-1.625.71875-2.480469l6.160157-62.082031c.132812-.925781.1875-1.863281.160156-2.800781-.105469-12.675782-10.054688-23.085938-22.714844-23.765626-12.660156-.675781-23.664062 8.613282-25.125 21.207032l-6.320312 56.480468-24.160157 53.199219v-67.039062c-.015625-.816407-.148437-1.625-.398437-2.402344l-17.199219-54.316406c-3.613281-11.644531-15.878906-18.261719-27.59375-14.886719-11.71875 3.375-18.582031 15.503906-15.445313 27.285156l12.558594 52.960938-7.761718 92.957031-25.277344 44.242187-23.199219-29.039062-7.761719-61.601562c-.320312-12.644532-10.476562-22.835938-23.121094-23.199219-13.695312 0-24.800781 11.101562-24.800781 24.800781v79.199219c-.003906 1.570312.472657 3.105469 1.363281 4.398437zm0 0"/></svg>