<svg height="512pt" viewBox="-16 0 512 512" width="512pt" xmlns="http://www.w3.org/2000/svg"><path d="m360 45c0-16.949219 5.863281-32.425781 15.382812-45h-300.382812c-41.351562 0-75 33.648438-75 75v66.210938l23.789062 23.789062-23.789062 23.789062v132.421876l23.789062 23.789062-23.789062 23.789062v68.210938c0 41.351562 33.648438 75 75 75h300.382812c-9.519531-12.574219-15.382812-28.050781-15.382812-45s0-218.210938 0-218.210938l-23.789062-23.789062 23.789062-23.789062s0-114.859376 0-156.210938zm-90 315h-90v-30h90zm0-60h-180v-30h180zm0-60h-180v-30h180zm0-60h-180v-30h180zm0-60h-180v-30h180zm0 0"/><path d="m480 467c0 24.851562-20.148438 45-45 45s-45-20.148438-45-45 20.148438-45 45-45 45 20.148438 45 45zm0 0"/><path d="m480 45c0 24.851562-20.148438 45-45 45s-45-20.148438-45-45 20.148438-45 45-45 45 20.148438 45 45zm0 0"/></svg>