<svg height="512" viewBox="0 0 56 53" width="512" xmlns="http://www.w3.org/2000/svg"><g id="Page-1" fill="none" fill-rule="evenodd"><g id="015---Dark-Web" fill="rgb(0,0,0)" fill-rule="nonzero"><path id="Shape" d="m24.74 44.48c2.1615533-.3200121 4.3584467-.3200121 6.52 0l-3.26-7.87z"/><path id="Shape" d="m40.75 29.8c-.3817824 1.3660807-.5537456 2.782248-.51 4.2-.0437456 1.417752.1282176 2.8339193.51 4.2l5.88 2.44c-.440721-2.1853456-.6518677-4.4107642-.63-6.64-.0218677-2.2292358.189279-4.4546544.63-6.64z"/><path id="Shape" d="m28 46.24c-1.417752-.0437456-2.8339193.1282176-4.2.51l-2.43 5.88c2.1819224-.4410416 4.4040597-.652195 6.63-.63 2.2259403-.022195 4.4480776.1889584 6.63.63l-2.43-5.88c-1.3660807-.3817824-2.782248-.5537456-4.2-.51z"/><path id="Shape" d="m40 40.05c-1.2335786.6951726-2.3532583 1.5754027-3.32 2.61-1.0542602.9740489-1.9575098 2.0997405-2.68 3.34l2.44 5.89c2.5085272-3.6952321 5.6947679-6.8814728 9.39-9.39z"/><path id="Shape" d="m25.39 34-7.87-3.26c.1587244 1.0794336.2389349 2.1689596.24 3.26-.0010651 1.0910404-.0812756 2.1805664-.24 3.26z"/><path id="Shape" d="m15.25 38.2c.3817824-1.3660807.5537456-2.782248.51-4.2.0437456-1.417752-.1282176-2.8339193-.51-4.2l-5.88-2.44c.44072103 2.1853456.6518677 4.4107642.63 6.64.0218677 2.2292358-.18927897 4.4546544-.63 6.64z"/><path id="Shape" d="m33.11 43.72c.6481422-.8778459 1.3600685-1.7067554 2.13-2.48.7710137-.7723397 1.6001103-1.4844267 2.48-2.13l-7.87-3.26z"/><path id="Shape" d="m19.34 42.66c-.9728165-1.0362249-2.0993402-1.9165324-3.34-2.61l-5.89 2.43c1.8585451 1.2312657 3.5814844 2.6558751 5.14 4.25 1.5941249 1.5585156 3.0187343 3.2814549 4.25 5.14l2.5-5.87c-.7163787-1.238913-1.6128296-2.3645319-2.66-3.34z"/><path id="Shape" d="m29 11c1.4450384.1028919 2.8636411.4406545 4.2 1h4.8c1.6568542 0 3 1.3431458 3 3v1h1c1.6568542 0 3 1.3431458 3 3v1c0 .5522847-.4477153 1-1 1s-1-.4477153-1-1v-1c0-.5522847-.4477153-1-1-1h-4c-.0014634.3362704-.0383334.6714519-.11 1h1.11c1.6568542 0 3 1.3431458 3 3v1c0 .5522847-.4477153 1-1 1s-1-.4477153-1-1v-1c0-.5522847-.4477153-1-1-1h-1.94c-.2462162.3574752-.5239955.6921491-.83 1 1.5664209.1204399 2.7746234 1.4289625 2.77 3v1c0 .5522847-.4477153 1-1 1s-1-.4477153-1-1v-1c0-.5522847-.4477153-1-1-1h-2.8c-3.3380667 1.3353847-7.0619333 1.3353847-10.4 0h-2.8c-.5522847 0-1 .4477153-1 1v1c0 .5522847-.4477153 1-1 1s-1-.4477153-1-1v-1c-.0046234-1.5710375 1.2035791-2.8795601 2.77-3-.3060045-.3078509-.5837838-.6425248-.83-1h-1.94c-.5522847 0-1 .4477153-1 1v1c0 .5522847-.4477153 1-1 1s-1-.4477153-1-1v-1c0-1.6568542 1.3431458-3 3-3h1.11c-.0716666-.3285481-.1085366-.6637296-.11-1h-4c-.5522847 0-1 .4477153-1 1v1c0 .5522847-.4477153 1-1 1s-1-.4477153-1-1v-1c0-1.6568542 1.3431458-3 3-3h1v-1c0-1.6568542 1.3431458-3 3-3h4.8c1.3363589-.5593455 2.7549616-.8971081 4.2-1v-3h-27v37c0 1.6568542 1.34314575 3 3 3h10.71c-1.7199585-1.84897-3.75068306-3.382167-6-4.53l-.62.26c-.51086339.2098682-1.09513176-.0341366-1.30499996-.545s.03413659-1.0951318.54499996-1.305l.67-.26c.77784137-2.4616526 1.11633852-5.0410009 1-7.62.11633852-2.5789991-.22215863-5.1583474-1-7.62l-.61-.26c-.51086337-.2098682-.75486817-.7941366-.54499997-1.305s.79413658-.7548682 1.30499997-.545l20.85 8.65 20.87-8.65c.5108634-.2098682 1.0951318.0341366 1.305.545s-.0341366 1.0951318-.545 1.305l-.61.26c-.7846098 2.4604447-1.1298806 5.0398204-1.02 7.62-.1163385 2.5789991.2221586 5.1583474 1 7.62l.61.26c.5108634.2098682.7548681.7941366.5449999 1.305-.2098682.5108633-.7941365.7548682-1.3049999.545l-.62-.26c-2.2493169 1.147833-4.2800415 2.68103-6 4.53h10.77c1.6568542 0 3-1.3431458 3-3v-37h-27zm-25 22c0 .5522847-.44771525 1-1 1s-1-.4477153-1-1v-15c0-.5522847.44771525-1 1-1s1 .4477153 1 1zm0-19c0 .5522847-.44771525 1-1 1s-1-.4477153-1-1v-3c0-.5522847.44771525-1 1-1s1 .4477153 1 1z"/><path id="Shape" d="m30.61 34 7.87 3.26c-.3200121-2.1615533-.3200121-4.3584467 0-6.52z"/><path id="Shape" d="m20.76 41.24c.7699315.7732446 1.4818578 1.6021541 2.13 2.48l3.26-7.87-7.87 3.26c.8798897.6455733 1.7089863 1.3576603 2.48 2.13z"/><path id="Shape" d="m17 15v1h1.41c.3110124-.748185.7663449-1.4277856 1.34-2h-1.75c-.5522847 0-1 .4477153-1 1z"/><path id="Shape" d="m20 18c0 2.71 3.66 5 8 5s8-2.29 8-5-3.66-5-8-5-8 2.29-8 5zm10 1c.5522847 0 1 .4477153 1 1s-.4477153 1-1 1-1-.4477153-1-1 .4477153-1 1-1zm-4 0c.5522847 0 1 .4477153 1 1s-.4477153 1-1 1-1-.4477153-1-1 .4477153-1 1-1z"/><path id="Shape" d="m55 0h-54c-.55228475 0-1 .44771525-1 1v5h56v-5c0-.55228475-.4477153-1-1-1zm-52 4c-.55228475 0-1-.44771525-1-1s.44771525-1 1-1 1 .44771525 1 1-.44771525 1-1 1zm4 0c-.55228475 0-1-.44771525-1-1s.44771525-1 1-1 1 .44771525 1 1-.44771525 1-1 1zm4 0c-.5522847 0-1-.44771525-1-1s.4477153-1 1-1 1 .44771525 1 1-.4477153 1-1 1zm42 0h-6c-.5522847 0-1-.44771525-1-1s.4477153-1 1-1h6c.5522847 0 1 .44771525 1 1s-.4477153 1-1 1z"/><path id="Shape" d="m39 16v-1c0-.5522847-.4477153-1-1-1h-1.75c.5736551.5722144 1.0289876 1.251815 1.34 2z"/></g></g></svg>