<svg id="Capa_1" enable-background="new 0 0 511.999 511.999" height="512" viewBox="0 0 511.999 511.999" width="512" xmlns="http://www.w3.org/2000/svg"><g><path d="m433.747 0h-308.053c-34.431 0-62.443 28.012-62.443 62.442v292.108c0 34.432 28.012 62.443 62.443 62.443h308.053c8.284 0 15-6.716 15-15v-386.993c0-8.284-6.715-15-15-15zm-177.746 311.447h-.001-.001c-.048 0-.096 0-.143-.001-.008 0-.016-.001-.024-.001-56.96-.071-105.652-36.074-124.597-86.512-.501-.883-1.65-4.278-1.77-5.016-4.335-13.123-6.69-27.139-6.69-41.696 0-40.924 18.554-77.592 47.686-102.05.465-.462 1.958-1.644 2.197-1.804 22.837-18.363 51.826-29.371 83.343-29.371 33.057 0 63.337 12.107 86.649 32.113.447.291 2.73 2.235 3.336 2.96 26.561 24.371 43.241 59.348 43.241 98.152-.002 73.461-59.766 133.226-133.226 133.226zm116.646 45.55c0 8.284-6.716 15-15 15h-203.295c-8.284 0-15-6.716-15-15s6.716-15 15-15h203.295c8.284 0 15 6.716 15 15z"/><path d="m321.204 164.155 37.094 27.881c.607-4.521.927-9.131.927-13.815 0-22.6-7.307-43.523-19.674-60.543z"/><path d="m207.26 87.25 49.165 35.518 51.558-33.694c-15.276-8.942-33.041-14.076-51.984-14.076-17.616-.001-34.214 4.439-48.739 12.252z"/><path d="m175.152 114.116c-14.002 17.621-22.379 39.902-22.379 64.105 0 4.773.333 9.468.963 14.071l39.813-28.536z"/><path d="m233.846 279.046-16.625-46.488-48.96-.016c14.48 23.305 37.979 40.443 65.585 46.504z"/><path d="m296.283 232.585-17.59 46.343c27.348-6.159 50.619-23.204 65.008-46.327z"/><path d="m220.332 181.47-29.409 21.079 36.87.013c6.335.002 11.986 3.984 14.119 9.949l14.506 40.562 15.491-40.814c2.211-5.826 7.793-9.678 14.024-9.678h.005l36.475.013-28.371-21.325c-5.397-4.057-7.418-11.219-4.939-17.498l14.109-35.74-39.006 25.491c-5.2 3.398-11.955 3.24-16.99-.397l-34.976-25.268 13.42 36.209c2.349 6.338.167 13.466-5.328 17.404z"/><path d="m119.812 446.995v50.003c0 4.812 2.308 9.331 6.206 12.151 3.898 2.821 8.912 3.602 13.482 2.098l25.709-8.459 25.71 8.459c1.532.504 3.114.751 4.687.751 3.12 0 6.204-.974 8.795-2.849 3.897-2.82 6.206-7.34 6.206-12.151v-50.003z"/></g></svg>